<svg width="48" height="48" xmlns="http://www.w3.org/2000/svg"><g fill="none" fill-rule="evenodd"><path d="M4.7495723,41.326866 C13.8694945,51.2976087 32.1103109,49.563533 41.174233,39.6540148 C50.2381551,29.7444966 50.3077347,20.1106495 41.1878125,10.1399068 C32.0678903,0.169164145 19.0299768,-4.3751711 9.9660547,5.53434708 C0.902132599,15.4438653 -4.37034989,31.3561233 4.7495723,41.326866 Z" fill="#202023"/><path d="M1.72562697,0.000832982156 C4.4438937,0.0213051205 9.84803083,0.436226348 14.0761916,3.11403971 C15.7728766,4.188469 16.6123767,5.59264845 16.9083343,7.1087504 C18.1873498,6.69676327 21.055512,6.20815535 21.8570422,9.73485079 C22.9484241,9.71275815 24.3867261,9.7643063 25.7985739,9.84093971 L26.3260476,9.87075828 C28.774998,10.0145139 31,10.2165053 31,10.2165053 C24.0630707,10.3688109 20.144363,11.4231824 20.144363,11.4231824 C20.144363,11.4231824 20.0825968,7.85302836 17.0007886,9.25480087 C16.6903936,12.7318233 14.4188572,16.2687908 13.5390701,17.5233476 C15.568759,16.1840964 17.5895774,14.7381112 19,13 C19,13 18.2414927,17.0410057 13.9725488,19.8539463 C11.3207552,25.009904 11.9412638,32 11.9412638,32 C11.9412638,32 6.84834995,29.3182911 6.10454404,25.8711932 C5.31203237,22.6171853 9.15872522,20.3865532 13.1284989,17.792487 C12.563126,16.0079897 8.24183202,3.16208879 0,0.0459992125 C0,0.0459992125 0.564868141,0 1.5054048,0 Z M11.6733106,21.2969777 C11.6733106,21.2969777 8.70266379,23.1206329 8.29587976,24.7553352 C7.93749928,26.196037 10.1141336,28.1526064 10.1141336,28.1526064 L10.1141336,28.1526064 L10.1186246,28.1200961 C10.1543864,27.8634871 10.4017278,26.1297541 10.7888709,24.4196201 C11.1697195,22.7366442 11.6733106,21.2969777 11.6733106,21.2969777 Z M7.37683463,2.80448106 C9.2592083,4.90493347 10.5079258,7.46430827 11.6878552,9.73257758 C11.8752344,10.0928156 12.0626135,10.4741812 12.2451814,10.8603606 C13.0240857,12.5071057 13.6937613,14.1582634 13.6937613,14.1582634 C13.6937613,14.1582634 13.7292974,14.0957246 13.7890668,13.9797255 L13.8716986,13.8154468 C14.2429668,13.0603367 15.0684021,11.1571728 15.0979996,9.10998358 C15.122576,8.68876986 15.1078822,8.27852107 15.0409146,7.88806264 C14.8484641,6.76576208 14.0501848,5.66806576 12.9601089,4.97767642 C12.1128067,4.44106351 10.2654122,3.44913863 7.37683463,2.80448106 Z" transform="translate(11 10)" fill="#FFFFFF"/></g></svg>