<svg width="186" height="48" xmlns="http://www.w3.org/2000/svg"><g fill-rule="nonzero" fill="none"><path d="M103.827536,0.00092307 L106.427034,1.81938461 L106.604335,1.94307692 L93.7933828,19.8267692 L91.0165837,17.8846153 L95.8388134,11.1526153 L87.7919139,2.23846153 L87.9535167,2.09538461 L90.3304641,-1.77635684e-15 L97.8565407,8.33630765 L103.827536,0.00092307 L103.827536,0.00092307 Z M117.930388,0.00092307 C120.20391,0.00092307 122.343532,0.63692307 124.082378,1.75938461 L124.082378,0.25107692 L127.507436,0.25107692 L127.507436,17.4895384 L124.082378,17.4895384 L124.082378,15.9803077 C122.341685,17.1027693 120.20391,17.7396923 117.930388,17.7396923 C112.260436,17.7396923 107.649675,13.7612307 107.649675,8.87076925 C107.649675,3.97938461 112.261359,-1.77635684e-15 117.930388,-1.77635684e-15 L117.930388,0.00092307 Z M72.9900143,0.00092307 C75.2644593,0.00092307 77.4022344,0.63692307 79.1420048,1.75938461 L79.1420048,0.25107692 L82.5661387,0.25107692 L82.5661387,17.4895384 L79.1420048,17.4895384 L79.1420048,15.9803077 C77.401311,17.1027693 75.2626124,17.7396923 72.9900143,17.7396923 C67.3209856,17.7396923 62.708378,13.7612307 62.708378,8.87076925 C62.708378,3.97938461 67.3209856,-1.77635684e-15 72.9900143,-1.77635684e-15 L72.9900143,0.00092307 Z M11.1210478,0.00092307 C14.5895072,0.00092307 17.7698517,1.26 19.8522201,3.37476923 L17.2665742,5.44523077 C15.8823301,3.996 13.6466698,3.05446153 11.1265885,3.05446153 C6.93414833,3.05446153 3.52386603,5.66307692 3.52386603,8.86984615 C3.52386603,12.0775384 6.93414833,14.6870769 11.1265885,14.6870769 C13.653134,14.6870769 15.8934115,13.7390769 17.2767321,12.2843076 L19.8577608,14.3584616 C17.7753923,16.476923 14.5895072,17.7396923 11.1210478,17.7396923 C4.98937321,17.7396923 -7.10542736e-15,13.7612307 -7.10542736e-15,8.87076925 C-7.10542736e-15,3.97938461 4.98844976,-1.77635684e-15 11.1210478,-1.77635684e-15 L11.1210478,0.00092307 Z M28.5501483,0.00092307 L28.5501483,8.56523075 C28.5501483,12.0433847 30.3822632,13.6624615 34.3170622,13.6624615 C38.4919569,13.6624615 40.521689,11.9953846 40.521689,8.56523075 L40.521689,0.00092307 L43.8959569,0.00092307 L43.8959569,8.82553845 C43.8959569,13.8286153 40.3961005,16.6966153 34.2939761,16.6966153 C31.4977847,16.6966153 29.2768995,16.0698461 27.6950383,14.8347693 C25.9617321,13.4824615 25.0835359,11.4747692 25.0835359,8.86984615 L25.0835359,0.00092307 L28.5501483,0.00092307 L28.5501483,0.00092307 Z M52.545866,0.00092307 L52.545866,2.37784615 C53.813756,0.46153846 56.1786986,0.00092307 59.6397703,0.00092307 L60.618622,0.00092307 L60.618622,2.99723077 L59.6397703,2.99723077 C56.5453062,2.99723077 52.956799,3.41076923 52.545866,6.38215385 L52.545866,16.6975384 L49.1217321,16.6975384 L49.1217321,0.00092307 L52.545866,0.00092307 L52.545866,0.00092307 Z M117.930388,3.26861538 C114.17012,3.26861538 111.11167,5.78215385 111.11167,8.87076925 C111.11167,11.9584615 114.17012,14.4710769 117.930388,14.4710769 C120.508646,14.4710769 122.839422,13.2913846 124.014044,11.3926154 L124.082378,11.2818462 L124.082378,6.46061535 C122.950235,4.52215384 120.53635,3.27046153 117.930388,3.27046153 L117.930388,3.26861538 Z M72.9900143,3.26861538 C69.2306698,3.26861538 66.1703732,5.78215385 66.1703732,8.87076925 C66.1703732,11.9584615 69.2306698,14.4710769 72.9900143,14.4710769 C75.5682727,14.4710769 77.8981244,13.2913846 79.0736698,11.3926154 L79.1420048,11.2818462 L79.1420048,6.46061535 C78.0089378,4.52215384 75.5959761,3.27046153 72.9900143,3.27046153 L72.9900143,3.26861538 Z" transform="translate(58.177 15.25)" fill="#202023"/><path d="M4.7495723,41.326866 C13.8694945,51.2976087 32.1103109,49.563533 41.174233,39.6540148 C50.2381551,29.7444966 50.3077347,20.1106495 41.1878125,10.1399068 C32.0678903,0.169164147 19.0299768,-4.3751711 9.9660547,5.53434708 C0.902132599,15.4438653 -4.37034989,31.3561233 4.7495723,41.326866 Z" fill="#202023"/><path d="M1.72562697,0.000832982156 C4.4438937,0.0213051205 9.84803083,0.436226348 14.0761916,3.11403971 C15.7728766,4.188469 16.6123767,5.59264845 16.9083343,7.1087504 C18.1873498,6.69676327 21.055512,6.20815535 21.8570422,9.73485079 C22.9484241,9.71275815 24.3867261,9.7643063 25.7985739,9.84093971 L26.3260476,9.87075828 C28.774998,10.0145139 31,10.2165053 31,10.2165053 C24.0630707,10.3688109 20.144363,11.4231824 20.144363,11.4231824 C20.144363,11.4231824 20.0825968,7.85302836 17.0007886,9.25480087 C16.6903936,12.7318233 14.4188572,16.2687908 13.5390701,17.5233476 C15.568759,16.1840964 17.5895774,14.7381112 19,13 C19,13 18.2414927,17.0410057 13.9725488,19.8539463 C11.3207552,25.009904 11.9412638,32 11.9412638,32 C11.9412638,32 6.84834995,29.3182911 6.10454404,25.8711932 C5.31203237,22.6171853 9.15872522,20.3865532 13.1284989,17.792487 C12.563126,16.0079897 8.24183202,3.16208879 0,0.0459992125 C0,0.0459992125 0.564868141,0 1.5054048,0 L1.72562697,0.000832982156 Z M11.6733106,21.2969777 C11.6733106,21.2969777 8.70266379,23.1206329 8.29587976,24.7553352 C7.93749928,26.196037 10.1141336,28.1526064 10.1141336,28.1526064 L10.1141336,28.1526064 L10.1186246,28.1200961 C10.1543864,27.8634871 10.4017278,26.1297541 10.7888709,24.4196201 C11.1697195,22.7366442 11.6733106,21.2969777 11.6733106,21.2969777 Z M7.37683463,2.80448106 C9.2592083,4.90493347 10.5079258,7.46430827 11.6878552,9.73257758 C11.8752344,10.0928156 12.0626135,10.4741812 12.2451814,10.8603606 C13.0240857,12.5071057 13.6937613,14.1582634 13.6937613,14.1582634 C13.6937613,14.1582634 13.7292974,14.0957246 13.7890668,13.9797255 L13.8716986,13.8154468 C14.2429668,13.0603367 15.0684021,11.1571728 15.0979996,9.10998358 C15.122576,8.68876986 15.1078822,8.27852107 15.0409146,7.88806264 C14.8484641,6.76576208 14.0501848,5.66806576 12.9601089,4.97767642 C12.1128067,4.44106351 10.2654122,3.44913863 7.37683463,2.80448106 Z" transform="translate(11 10)" fill="#FFFFFF"/></g></svg>