<svg width="133" height="176" viewBox="0 0 133 176" fill="none" xmlns="http://www.w3.org/2000/svg">
<g opacity="0.4">
<path d="M0.868149 165.265L25.3328 140.759C27.4672 138.621 29.9735 136.975 32.7215 135.878C35.6938 117.119 51.3748 102.852 70.1503 101.481V88.8459L56.5856 75.2582C54.7363 75.6314 52.8704 75.8163 51.0134 75.8163C43.5998 75.8163 36.343 72.8999 30.9889 67.5371C23.8821 60.418 21.0795 49.942 23.676 40.1971C23.9493 39.1699 24.7504 38.3675 25.7762 38.0933C35.5051 35.4928 45.9631 38.3001 53.0702 45.4185C59.7655 52.1251 62.6383 61.8105 60.7787 71.058L70.151 80.4462V48.5012C62.3081 43.2797 57.5022 34.3964 57.5022 24.9115C57.5022 14.8437 62.9157 5.45106 71.6307 0.39928C72.5492 -0.133093 73.6819 -0.133093 74.6008 0.39928C83.3154 5.45106 88.7293 14.8433 88.7293 24.9115C88.7293 34.3964 83.923 43.2801 76.0805 48.5012V80.4462L85.4528 71.058C83.5924 61.8109 86.466 52.1251 93.1613 45.4185C100.268 38.2994 110.727 35.4935 120.455 38.0933C121.481 38.3675 122.281 39.1699 122.556 40.1971C125.152 49.9417 122.349 60.418 115.243 67.5371C109.888 72.9007 102.632 75.8163 95.2181 75.8163C93.3614 75.8163 91.4951 75.6318 89.6459 75.2582L76.0812 88.8459V101.479C84.5098 102.096 92.6042 105.317 99.1412 110.722C100.404 111.765 100.582 113.638 99.5405 114.902C98.4976 116.167 96.6302 116.346 95.3666 115.302C89.1252 110.143 81.2233 107.302 73.1152 107.302C56.8162 107.302 42.727 118.695 39.0617 134.297C52.1584 131.998 78.0886 126.816 78.3624 126.761C78.5466 126.724 78.733 126.705 78.9206 126.704C78.9451 126.704 78.9685 126.704 78.9926 126.704C81.4468 126.704 83.7592 127.652 85.5093 129.38C87.2768 131.124 88.2602 133.453 88.2792 135.938C88.2981 138.478 87.23 143.057 79.8628 145.196C75.9869 146.321 71.8925 147.593 68.8704 148.55L71.383 151.067L93.9052 153.118C96.1436 151.693 102.398 147.714 108.049 144.122C108.079 143.532 108.097 142.936 108.097 142.343C108.097 135.287 106.014 128.486 102.071 122.674C101.151 121.318 101.503 119.471 102.857 118.549C104.211 117.627 106.055 117.98 106.975 119.337C111.217 125.589 113.614 132.82 113.974 140.359C115.474 139.406 116.717 138.617 117.531 138.104C122.135 135.192 126.781 135.184 129.958 138.081C131.858 139.813 132.938 142.181 132.997 144.748C133.029 146.109 132.755 147.473 132.208 148.719C131.692 149.893 130.866 151.27 129.754 151.966L93.978 174.363C93.5412 174.637 93.0405 174.792 92.5254 174.812L62.944 175.998C62.9031 175.999 62.8637 176 62.8232 176C61.2407 176 59.9267 174.747 59.8632 173.149C59.7978 171.51 61.0713 170.129 62.7066 170.063L91.5022 168.91L126.281 147.136C127.437 145.769 127.285 143.674 125.966 142.473C124.457 141.096 122.016 142.292 120.695 143.126C115.931 146.137 96.4285 158.548 96.232 158.673C95.6797 159.025 95.0268 159.184 94.3743 159.124L69.7778 156.884C69.087 156.821 68.44 156.518 67.9501 156.027L61.2414 149.307C59.7046 147.767 60.3542 145.061 62.4162 144.385C62.4983 144.359 70.7467 141.658 78.2127 139.491C80.9696 138.691 82.3616 137.511 82.3501 135.983C82.3375 134.241 80.941 132.758 79.2036 132.65C76.008 133.287 49.8505 138.495 38.1774 140.478C34.8871 141.037 31.8951 142.587 29.5259 144.96L5.06166 169.466C3.90399 170.626 2.0273 170.626 0.868896 169.466C-0.289505 168.305 -0.289505 166.425 0.868149 165.265ZM35.1816 63.3369C39.4602 67.6231 45.2786 69.9256 51.2076 69.8716L28.6576 47.2835C28.6041 53.2226 30.9023 59.0508 35.1816 63.3369ZM48.8764 49.618C44.5978 45.3318 38.7798 43.0297 32.8503 43.0837L55.4 65.6714C55.4539 59.732 53.1556 53.9041 48.8764 49.618ZM70.1499 8.93958C65.9196 13.1018 63.4301 18.8504 63.4301 24.9115C63.4301 30.973 65.9193 36.722 70.1499 40.8835V8.93958ZM111.048 63.3369C115.327 59.0508 117.625 53.223 117.571 47.2835L95.022 69.8709C100.951 69.9241 106.769 67.6231 111.048 63.3369ZM113.379 43.084C107.449 43.0305 101.631 45.3318 97.3525 49.618C93.074 53.9041 90.7754 59.732 90.8292 65.6714L113.379 43.084ZM76.079 40.8839C80.3096 36.722 82.7988 30.9734 82.7988 24.9119C82.7988 18.8504 80.3096 13.1022 76.079 8.93995V40.8839Z" fill="#B48254"/>
</g>
</svg>
