<svg width="179" height="144" viewBox="0 0 179 144" fill="none" xmlns="http://www.w3.org/2000/svg">
<path opacity="0.4" d="M176.1 138.24H160.443V131.318C165.762 129.858 169.721 124.478 169.721 118.08C169.721 110.563 164.258 104.448 157.543 104.448C150.828 104.448 145.365 110.563 145.365 118.08C145.365 124.478 149.324 129.858 154.644 131.318V138.24H141.886V108.636C147.534 104.728 151.164 98.711 151.164 91.968C151.164 86.3724 148.564 72.0507 144.693 59.6498C139.262 42.25 133.348 33.792 126.614 33.792C121.554 33.792 116.96 38.5962 112.657 48.4205C104.573 25.3701 92.8183 2.9641 92.0682 1.54253C91.5676 0.594047 90.5783 0 89.5 0C88.4217 0 87.4324 0.594049 86.9318 1.54291C86.8699 1.66042 80.6486 13.4788 74.157 28.5853C66.2315 47.03 61.3216 62.2065 59.5308 73.7798C59.2556 73.7472 58.9791 73.728 58.7 73.728C53.63 73.728 49.2354 79.0975 45.2711 90.1309C44.5536 84.639 43.0737 77.01 41.1518 70.128C38.6369 61.1232 34.4867 49.152 27.5138 49.152C20.5409 49.152 16.3907 61.1232 13.8762 70.128C11.1258 79.9741 9.27862 91.3555 9.27862 95.808C9.27862 104.54 15.9983 111.796 24.743 113.079V138.24H2.89957C1.29785 138.24 0 139.529 0 141.12C0 142.711 1.29785 144 2.89957 144H176.1C177.702 144 179 142.711 179 141.12C179 139.529 177.702 138.24 176.1 138.24ZM151.164 118.08C151.164 113.739 154.026 110.208 157.543 110.208C161.061 110.208 163.922 113.739 163.922 118.08C163.922 122.421 161.061 125.952 157.543 125.952C154.026 125.952 151.164 122.421 151.164 118.08ZM136.086 138.24H129.514V113.126C131.816 112.89 134.023 112.38 136.086 111.628V138.24ZM49.0994 123.403C51.0718 124.372 53.2944 125.05 55.6717 125.366V138.24H49.0994V123.403ZM61.4708 125.402C65.1761 124.954 68.5149 123.62 71.1361 121.686V138.24H61.4708V125.402ZM76.9352 110.615C79.9894 111.976 83.2493 112.828 86.6004 113.141V138.24H76.9352V110.615ZM92.3996 113.14C97.025 112.708 101.354 111.254 105.158 109.007V138.24H92.3996V113.14ZM117.222 95.9278L123.715 102.377V107.33C119.558 106.798 115.767 105.126 112.88 102.536C114.597 100.537 116.064 98.3205 117.222 95.9278ZM110.957 108.387C114.584 111.001 118.992 112.651 123.715 113.131V138.24H110.957V108.387ZM121.5 44.034C123.375 41.1855 125.24 39.552 126.614 39.552C127.37 39.552 129.458 40.1157 132.54 45.337C134.781 49.1336 137.068 54.6728 139.154 61.3555C143.153 74.1677 145.365 87.5889 145.365 91.968C145.365 99.7256 138.481 106.174 129.514 107.333V101.186C129.514 101.185 129.514 101.183 129.514 101.182V96.2331L137.944 87.8604C139.076 86.7356 139.076 84.912 137.944 83.7876C136.811 82.6629 134.975 82.6629 133.843 83.7876L129.514 88.0869V82.752C129.514 81.1615 128.216 79.872 126.614 79.872C125.013 79.872 123.715 81.1615 123.715 82.752V94.2309L119.386 89.9316C119.382 89.927 119.377 89.9232 119.372 89.9186C119.932 87.6184 120.236 85.2204 120.236 82.752C120.236 75.4284 118.323 66.4078 115.495 57.0708C117.455 51.4963 119.474 47.1095 121.5 44.034ZM89.5 9.27475C96.3337 23.0243 114.436 61.46 114.436 82.752C114.436 95.4344 104.788 105.915 92.3996 107.347V95.0419C92.3996 95.0408 92.3996 95.0392 92.3996 95.0381V87.0171L103.922 75.5723C105.054 74.4476 105.054 72.624 103.922 71.4996C102.789 70.3749 100.954 70.3749 99.8213 71.4996L92.3996 78.8709V67.392C92.3996 65.8015 91.1017 64.512 89.5 64.512C87.8983 64.512 86.6004 65.8015 86.6004 67.392V85.8221C86.6004 85.8232 86.6004 85.8248 86.6004 85.8259V88.0869L79.1791 80.7157C78.0463 79.5909 76.2107 79.5909 75.0783 80.7157C73.9459 81.8404 73.9459 83.664 75.0783 84.7884L86.6004 96.2331V107.351C82.8008 106.913 79.1594 105.619 75.9354 103.539C75.9196 103.528 75.903 103.521 75.8867 103.511C75.081 99.6123 73.8427 94.9659 72.2797 90.5472C69.9987 84.0991 67.575 79.5418 64.9623 76.8115C67.6612 54.892 83.2675 21.8143 89.5 9.27475ZM50.5917 92.4568C54.2208 82.1987 57.4826 79.488 58.7 79.488C59.9174 79.488 63.1793 82.1987 66.8084 92.4568C69.595 100.334 71.1361 108.52 71.1361 111.168C71.1361 115.192 66.9305 118.677 61.4708 119.579V113.472C61.4708 111.881 60.173 110.592 58.5713 110.592C56.9696 110.592 55.6717 111.881 55.6717 113.472V119.537C50.3377 118.569 46.2643 115.129 46.2643 111.168C46.2643 108.52 47.8054 100.334 50.5917 92.4568ZM15.0778 95.808C15.0778 92.3601 16.6397 81.7801 19.4642 71.6678C23.3496 57.7559 26.8017 54.912 27.5138 54.912C28.2256 54.912 31.678 57.7559 35.5634 71.6678C38.3876 81.7797 39.9495 92.3605 39.9495 95.808C39.9495 101.282 35.94 105.89 30.5421 107.167V101.184C30.5421 99.5935 29.2443 98.304 27.6425 98.304C26.0408 98.304 24.743 99.5935 24.743 101.184V107.224C19.2156 106.034 15.0778 101.369 15.0778 95.808ZM30.5421 113.035C34.5346 112.392 38.0895 110.503 40.7571 107.8C40.5661 109.166 40.4652 110.318 40.4652 111.168C40.4652 113.997 41.5083 116.637 43.3002 118.865V138.24H30.5421V113.035Z" fill="#B48254"/>
</svg>
