<svg width="84" height="120" viewBox="0 0 84 120" fill="none" xmlns="http://www.w3.org/2000/svg">
<g opacity="0.4">
<path d="M0.548303 112.681L15.9997 95.9722C17.3477 94.5147 18.9306 93.3922 20.6662 92.6442C22.5435 79.8536 32.4472 70.1266 44.3054 69.1916V60.5767L35.7382 51.3124C34.5703 51.5668 33.3918 51.6929 32.219 51.6929C27.5367 51.6929 22.9535 49.7045 19.5719 46.048C15.0834 41.1941 13.3134 34.0514 14.9532 27.4071C15.1259 26.7068 15.6319 26.1596 16.2797 25.9727C22.4243 24.1996 29.0293 26.1137 33.518 30.9672C37.7466 35.5398 39.561 42.1435 38.3865 48.4487L44.3059 54.8497V33.069C39.3525 29.5089 36.3172 23.4521 36.3172 16.9851C36.3172 10.1207 39.7362 3.71663 45.2404 0.272237C45.8205 -0.0907455 46.536 -0.0907455 47.1163 0.272237C52.6202 3.71663 56.0396 10.1204 56.0396 16.9851C56.0396 23.4521 53.004 29.5092 48.0508 33.069V54.8497L53.9702 48.4487C52.7952 42.1438 54.6101 35.5398 58.8387 30.9672C63.3272 26.1132 69.9331 24.2001 76.077 25.9727C76.7249 26.1596 77.2304 26.7068 77.4035 27.4071C79.0431 34.0511 77.2733 41.1941 72.7848 46.048C69.403 49.705 64.8202 51.6929 60.1377 51.6929C58.9651 51.6929 57.7864 51.5671 56.6185 51.3124L48.0513 60.5767V69.1904C53.3746 69.6107 58.4868 71.8073 62.6155 75.4922C63.4128 76.2037 63.5256 77.4801 62.8677 78.3425C62.209 79.205 61.0296 79.327 60.2316 78.6152C56.2896 75.0975 51.2989 73.1603 46.178 73.1603C35.8839 73.1603 26.9855 80.9283 24.6705 91.5664C32.9422 89.9986 49.3191 86.4654 49.492 86.4278C49.6084 86.4027 49.7261 86.3898 49.8446 86.3888C49.8601 86.3888 49.8748 86.3888 49.8901 86.3888C51.4401 86.3888 52.9006 87.0356 54.0058 88.2133C55.1222 89.4025 55.7433 90.9906 55.7553 92.6853C55.7672 94.4165 55.0926 97.539 50.4397 98.997C47.9917 99.7641 45.4058 100.631 43.4971 101.284L45.084 103L59.3085 104.398C60.7223 103.427 64.6724 100.714 68.2417 98.2647C68.2602 97.8624 68.2719 97.4566 68.2719 97.0522C68.2719 92.2411 66.956 87.6038 64.466 83.6417C63.8848 82.7168 64.1071 81.4577 64.9621 80.8291C65.8176 80.2003 66.982 80.441 67.5633 81.3659C70.2423 85.6288 71.7565 90.5589 71.9833 95.699C72.9307 95.0496 73.7163 94.5119 74.23 94.1616C77.138 92.1764 80.0722 92.1711 82.0785 94.1458C83.2788 95.3269 83.9607 96.9416 83.9984 98.6921C84.0186 99.62 83.8455 100.55 83.5 101.399C83.1741 102.2 82.6525 103.139 81.9502 103.613L59.3545 118.884C59.0786 119.071 58.7625 119.176 58.4371 119.19L39.7541 119.998C39.7283 119.999 39.7034 120 39.6778 120C38.6783 120 37.8484 119.146 37.8083 118.056C37.767 116.939 38.5714 115.997 39.6042 115.952L57.7909 115.166L79.7562 100.32C80.4864 99.3876 80.3903 97.9596 79.5575 97.1405C78.6045 96.2017 77.0627 97.017 76.2285 97.5857C73.2197 99.639 60.9022 108.101 60.7781 108.186C60.4293 108.426 60.0169 108.534 59.6048 108.494L44.0702 106.966C43.6339 106.924 43.2252 106.717 42.9158 106.382L38.6788 101.8C37.7082 100.751 38.1184 98.9052 39.4208 98.4445C39.4726 98.4263 44.6822 96.585 49.3975 95.1077C51.1387 94.5621 52.0179 93.7572 52.0106 92.7157C52.0026 91.5281 51.1206 90.5165 50.0233 90.443C48.0051 90.8777 31.4846 94.4282 24.112 95.7804C22.034 96.1616 20.1443 97.2181 18.648 98.8364L3.19684 115.545C2.46568 116.336 1.2804 116.336 0.548776 115.545C-0.182848 114.754 -0.182851 113.471 0.548303 112.681ZM22.22 43.1843C24.9222 46.1066 28.597 47.6765 32.3417 47.6397L18.0995 32.2388C18.0657 36.2881 19.5173 40.2619 22.22 43.1843ZM30.8693 33.8304C28.167 30.9081 24.4925 29.3384 20.7476 29.3752L34.9895 44.776C35.0235 40.7263 33.572 36.7528 30.8693 33.8304ZM44.3052 6.09517C41.6335 8.93307 40.0611 12.8526 40.0611 16.9851C40.0611 21.118 41.6332 25.0377 44.3052 27.8751V6.09517V6.09517ZM70.1353 43.1843C72.8381 40.2619 74.2896 36.2884 74.2556 32.2388L60.0139 47.6392C63.7588 47.6755 67.4331 46.1066 70.1353 43.1843ZM71.6075 29.3755C67.8626 29.339 64.1881 30.9081 61.4858 33.8304C58.7836 36.7528 57.3318 40.7263 57.3658 44.776L71.6075 29.3755ZM48.0499 27.8754C50.7219 25.0377 52.294 21.1182 52.294 16.9854C52.294 12.8526 50.7219 8.93333 48.0499 6.09542V27.8754Z" fill="#B48254"/>
</g>
</svg>
