<svg width="90" height="90" viewBox="0 0 90 90" fill="none" xmlns="http://www.w3.org/2000/svg">
<path opacity="0.4" d="M88.5421 86.4H80.6695V82.074C83.3441 81.1613 85.3348 77.7989 85.3348 73.8C85.3348 69.102 82.5879 65.28 79.2117 65.28C75.8354 65.28 73.0886 69.102 73.0886 73.8C73.0886 77.7989 75.0792 81.1613 77.7538 82.074V86.4H71.3391V67.8977C74.179 65.4552 76.0043 61.6944 76.0043 57.48C76.0043 53.9827 74.6969 45.0317 72.7507 37.2811C70.0198 26.4062 67.0465 21.12 63.6609 21.12C61.1164 21.12 58.8065 24.1226 56.6434 30.2628C52.5785 15.8563 46.6684 1.85256 46.2913 0.96408C46.0396 0.37128 45.5421 0 45 0C44.4579 0 43.9604 0.37128 43.7087 0.96432C43.6776 1.03776 40.5496 8.42424 37.2857 17.8658C33.3008 29.3938 30.8321 38.879 29.9317 46.1124C29.7933 46.092 29.6543 46.08 29.514 46.08C26.9648 46.08 24.7552 49.4359 22.762 56.3318C22.4013 52.8994 21.6571 48.1313 20.6909 43.83C19.4264 38.202 17.3397 30.72 13.8338 30.72C10.3278 30.72 8.24112 38.202 6.97685 43.83C5.594 49.9838 4.66523 57.0972 4.66523 59.88C4.66523 65.3374 8.04382 69.8724 12.4406 70.6742V86.4H1.45788C0.652549 86.4 0 87.2059 0 88.2C0 89.1941 0.652549 90 1.45788 90H88.5421C89.3474 90 90 89.1941 90 88.2C90 87.2059 89.3474 86.4 88.5421 86.4ZM76.0043 73.8C76.0043 71.087 77.4432 68.88 79.2117 68.88C80.9802 68.88 82.419 71.087 82.419 73.8C82.419 76.513 80.9802 78.72 79.2117 78.72C77.4432 78.72 76.0043 76.513 76.0043 73.8ZM68.4233 86.4H65.1188V70.704C66.2763 70.5564 67.3859 70.2377 68.4233 69.7678V86.4ZM24.6868 77.1269C25.6786 77.7324 26.7961 78.1565 27.9914 78.3535V86.4H24.6868V77.1269ZM30.9071 78.3763C32.7701 78.0962 34.4488 77.2625 35.7667 76.0538V86.4H30.9071V78.3763ZM38.6825 69.1346C40.2181 69.9847 41.8572 70.5175 43.5421 70.7129V86.4H38.6825V69.1346ZM46.4579 70.7126C48.7835 70.4426 50.96 69.5335 52.8726 68.1295V86.4H46.4579V70.7126ZM58.9383 59.9549L62.203 63.9857V67.0814C60.1128 66.7486 58.2069 65.7036 56.7552 64.0848C57.6187 62.8356 58.3563 61.4503 58.9383 59.9549ZM55.7883 67.7422C57.6119 69.3756 59.8286 70.4069 62.203 70.7069V86.4H55.7883V67.7422ZM61.0894 27.5213C62.0324 25.741 62.9697 24.72 63.6609 24.72C64.0405 24.72 65.0908 25.0723 66.6402 28.3356C67.7669 30.7085 68.9167 34.1705 69.9656 38.3472C71.9765 46.3548 73.0886 54.743 73.0886 57.48C73.0886 62.3285 69.6273 66.3586 65.1188 67.0834V63.2412C65.1188 63.2405 65.1188 63.2395 65.1188 63.2388V60.1457L69.3571 54.9127C69.9265 54.2098 69.9265 53.07 69.3571 52.3673C68.7876 51.6643 67.8647 51.6643 67.2953 52.3673L65.1188 55.0543V51.72C65.1188 50.7259 64.4662 49.92 63.6609 49.92C62.8556 49.92 62.203 50.7259 62.203 51.72V58.8943L60.0267 56.2073C60.0244 56.2044 60.0218 56.202 60.0195 56.1991C60.3008 54.7615 60.4538 53.2627 60.4538 51.72C60.4538 47.1427 59.4921 41.5049 58.07 35.6693C59.0554 32.1852 60.0708 29.4434 61.0894 27.5213ZM45 5.79672C48.4359 14.3902 57.5378 38.4125 57.5378 51.72C57.5378 59.6465 52.6865 66.1968 46.4579 67.092V59.4012C46.4579 59.4005 46.4579 59.3995 46.4579 59.3988V54.3857L52.2513 47.2327C52.8207 46.5298 52.8207 45.39 52.2513 44.6873C51.6818 43.9843 50.7588 43.9843 50.1895 44.6873L46.4579 49.2943V42.12C46.4579 41.1259 45.8053 40.32 45 40.32C44.1947 40.32 43.5421 41.1259 43.5421 42.12V53.6388C43.5421 53.6395 43.5421 53.6405 43.5421 53.6412V55.0543L39.8107 50.4473C39.2412 49.7443 38.3182 49.7443 37.7489 50.4473C37.1795 51.1502 37.1795 52.29 37.7489 52.9927L43.5421 60.1457V67.0944C41.6317 66.8206 39.8008 66.0118 38.1798 64.7117C38.1719 64.7052 38.1635 64.7004 38.1553 64.6942C37.7502 62.2577 37.1276 59.3537 36.3417 56.592C35.1949 52.5619 33.9763 49.7136 32.6626 48.0072C34.0196 34.3075 41.8663 13.6339 45 5.79672ZM25.4371 57.7855C27.2618 51.3742 28.9019 49.68 29.514 49.68C30.1261 49.68 31.7661 51.3742 33.5908 57.7855C34.9919 62.7086 35.7667 67.8252 35.7667 69.48C35.7667 71.995 33.6522 74.173 30.9071 74.737V70.92C30.9071 69.9259 30.2546 69.12 29.4492 69.12C28.6439 69.12 27.9914 69.9259 27.9914 70.92V74.7103C25.3094 74.1055 23.2614 71.9554 23.2614 69.48C23.2614 67.8252 24.0362 62.7086 25.4371 57.7855ZM7.58099 59.88C7.58099 57.725 8.36631 51.1126 9.78648 44.7924C11.74 36.0974 13.4757 34.32 13.8338 34.32C14.1916 34.32 15.9275 36.0974 17.881 44.7924C19.301 51.1123 20.0863 57.7253 20.0863 59.88C20.0863 63.3014 18.0704 66.1814 15.3564 66.9794V63.24C15.3564 62.2459 14.7038 61.44 13.8985 61.44C13.0932 61.44 12.4406 62.2459 12.4406 63.24V67.0147C9.66149 66.271 7.58099 63.3557 7.58099 59.88ZM15.3564 70.6466C17.3638 70.2451 19.1511 69.0646 20.4924 67.375C20.3964 68.2289 20.3456 68.9486 20.3456 69.48C20.3456 71.2483 20.8701 72.8978 21.7711 74.2906V86.4H15.3564V70.6466Z" fill="#B48254"/>
</svg>
